<?xml version="1.0" encoding="UTF-8"?>
<svg width="21px" height="21px" viewBox="0 0 21 21" version="1.1" xmlns="http://www.w3.org/2000/svg" xmlns:xlink="http://www.w3.org/1999/xlink">
    <!-- Generator: Sketch 54.1 (76490) - https://sketchapp.com -->
    <title>insta-icon</title>
    <desc>Created with Sketch.</desc>
    <g id="Pages" stroke="none" stroke-width="1" fill="none" fill-rule="evenodd">
        <g id="Index" transform="translate(-350.000000, -2357.000000)" fill="#FFFFFF">
            <g id="social-media-footer" transform="translate(-3.000000, 2259.000000)">
                <g id="insta-icon" transform="translate(353.000000, 98.000000)">
                    <g id="Shape">
                        <path d="M18,0 L3,0 C1.35,0 0,1.35 0,3 L0,18 C0,19.65 1.35,21 3,21 L18,21 C19.65,21 21,19.65 21,18 L21,3 C21,1.35 19.65,0 18,0 Z M10.5,7 C12.43,7 14,8.57 14,10.5 C14,12.43 12.43,14 10.5,14 C8.57,14 7,12.43 7,10.5 C7,8.57 8.57,7 10.5,7 Z M18,18 L3,18 L3,9 L4.181,9 C4.06259927,9.49127065 4.00185619,9.99466631 4,10.5 C4,14.0898509 6.91014913,17 10.5,17 C14.0898509,17 17,14.0898509 17,10.5 C16.9986385,9.99463578 16.9378885,9.49118263 16.819,9 L18,9 L18,18 Z M18,7 L14,7 L14,3 L18,3 L18,7 Z" fill-rule="nonzero"></path>
                    </g>
                </g>
            </g>
        </g>
    </g>
</svg>