<?xml version="1.0" encoding="UTF-8"?>
<svg width="160px" height="65px" viewBox="0 0 160 65" version="1.1" xmlns="http://www.w3.org/2000/svg" xmlns:xlink="http://www.w3.org/1999/xlink">
    <!-- Generator: Sketch 54.1 (76490) - https://sketchapp.com -->
    <title>nerds-logo</title>
    <desc>Created with Sketch.</desc>
    <g id="Pages" stroke="none" stroke-width="1" fill="none" fill-rule="evenodd">
        <g id="Index" transform="translate(-140.000000, -49.000000)" fill="#000000">
            <g id="top-menu" transform="translate(140.000000, 48.000000)">
                <g id="nerds-logo">
                    <g id="Shape">
                        <path d="M157.936,50.374 C156.701,50.535 155.413,50.645 154.179,50.751 L154.179,50.807 C151.764,68.171 127.991,71.038 127.4,57.406 C127.131,51.239 138.993,49.456 150.798,48.318 C151.227,37.228 134.897,53.985 129.19,43.717 C124.171,34.692 143.822,25.779 145.918,27.615 C152.356,33.251 149.322,34.233 144.539,35.95 C135.049,39.36 138.748,40.057 140.028,39.676 C147.597,37.423 154.394,38.636 154.34,47.993 C155.628,47.886 156.862,47.83 158.097,47.722 C160.403,47.507 160.564,50.157 157.936,50.374 L157.936,50.374 Z M150.422,51.13 C141.298,52.158 133.409,53.566 134.269,56.485 C135.985,62.058 147.846,63.303 150.422,51.13 L150.422,51.13 Z M117.678,45.918 C116.996,45.881 116.975,39.88 117.79,34.23 C118.795,27.279 129.725,30.873 126.883,32.324 C123.908,33.844 122.454,41.042 120.617,44.411 C119.982,45.572 118.012,45.937 117.678,45.918 Z M42.105,22.002 C44.481,26.868 37.168,30.173 33.813,26.523 C32.415,24.968 33.058,21.963 36.449,20.33 C38.146,19.494 40.522,18.734 42.105,22.002 Z M57.062,19.861 C59.647,25.158 51.682,28.757 48.031,24.783 C46.509,23.088 47.208,19.82 50.904,18.041 C52.75,17.13 55.336,16.305 57.062,19.861 Z M28.883,62.666 C20.964,68.004 14.664,66.825 16.671,51.818 C18.121,40.914 15.723,40.297 13.549,42.376 C10.704,45.073 8.921,52.099 8.865,58.788 C9.12322884,60.3951153 9.45827933,61.9889412 9.869,63.564 C10.203,65.194 4.962,66.879 1.895,64.575 C0.837,63.79 0,55.865 0,45.131 C0,36.307 1.171,30.236 2.23,29.956 C10.259,27.765 11.542,31.304 9.813,37.937 C9.12537323,40.5342678 8.65870916,43.1850535 8.418,45.861 C10.091,41.197 12.489,37.376 15.221,35.688 C22.637,31.024 28.826,33.215 27.655,42.489 C25.648,59.069 25.481,61.316 27.265,60.024 C29.496,58.45 30.945,61.262 28.883,62.666 L28.883,62.666 Z M54.982,60.59 C52.807,64.074 47.176,65.761 41.766,65.142 C34.016,64.299 29.221,57.386 31.061,47.045 C33.069,35.86 49.126,28.723 54.257,36.704 C57.992,42.493 52.082,52.721 42.66,56.487 L42.158,56.655 C44.109,61.826 48.737,64.131 53.197,59.015 C55.316,56.655 56.821,57.667 54.982,60.59 L54.982,60.59 Z M41.377,53.172 C47.232,49.013 49.183,39.852 47.566,37.267 C45.838,34.57 42.492,38.784 41.321,49.013 C41.21,50.474 41.21,51.878 41.377,53.172 Z M83.091,45.992 C81.494,48.499 79.188,50.376 77.125,51.051 C74.727,51.781 71.94,51.107 71.94,48.353 C71.94,47.342 72.832,44.981 75.564,43.632 C75.396,41.721 74.17,41.215 73.278,41.946 C69.933,44.532 65.861,54.196 66.922,61.167 C66.977,61.335 66.977,61.504 66.977,61.673 C67.145,62.29 67.312,62.91 67.535,63.527 C68.092,65.101 62.628,66.843 59.562,64.483 C58.503,63.695 57.945,57.513 57.945,46.779 C57.945,37.955 59.896,30.143 60.956,29.862 C67.368,28.119 71.103,31.154 69.096,37.111 C67.925,40.484 66.866,43.912 66.253,47.51 C68.706,40.822 72.776,34.638 76.065,33.009 C81.921,30.086 86.157,33.965 84.932,40.822 C84.876,40.932 84.82,41.215 84.82,41.271 C84.764,41.833 84.254,43.573 84.43,43.012 C83.914,44.657 83.538,45.289 83.091,45.992 L83.091,45.992 Z" fill-rule="nonzero"></path>
                        <path d="M113.207,27.161 C112.725608,29.6538587 112.353585,32.1665979 112.092,34.692 C111.033,44.752 111.48,53.688 112.705,57.678 C113.431,59.815 116.162,62.624 118.783,59.701 C121.626,56.498 124.75,58.352 120.957,62.117 C118.617,64.422 114.268,65.995 109.918,65.545 C106.795,65.152 104.9,63.13 103.784,60.04 C103.34,60.938 102.837,61.725 102.224,62.342 C100.105,64.535 97.539,65.772 94.25,65.434 C87.613,64.704 83.712,57.511 85.551,47.281 C87.503,36.49 96.87,32.556 102.279,35.424 C102.391,34.075 102.502,32.725 102.614,31.32 C102.669,31.039 102.669,30.758 102.724,30.477 C101.078586,30.8387197 99.4240243,31.1574946 97.762,31.433 C73.787,35.423 82.04,15.864 87.894,10.75 C94.53,5.017 95.254,8.895 93.191,10.188 C89.511,12.548 87.894,26.093 98.432,26.093 C100.161,26.093 101.778,25.981 103.394,25.812 C106.685,7.49 116.665,-1.391 124.75,1.532 C133.726,4.792 132.779,19.067 113.207,27.161 Z M102.279,51.554 C102.055,48.012 102.055,44.022 102.112,39.918 C102.112,39.412 102.168,38.907 102.168,38.457 C98.822,36.939 95.533,42.11 94.695,49.249 C93.749,57.622 97.483,62.062 99.603,60.04 C101.22,58.409 102.056,53.237 102.279,51.554 Z M126.365,8.389 C124.581,5.747 118.058,8.951 114.267,22.721 C123.802,18.167 127.593,10.299 126.365,8.389 Z" fill-rule="nonzero"></path>
                    </g>
                </g>
            </g>
        </g>
    </g>
</svg>