<?xml version="1.0" encoding="UTF-8"?>
<svg width="360px" height="40px" viewBox="0 0 360 40" version="1.1" xmlns="http://www.w3.org/2000/svg" xmlns:xlink="http://www.w3.org/1999/xlink">
    <!-- Generator: Sketch 54.1 (76490) - https://sketchapp.com -->
    <title>browser</title>
    <desc>Created with Sketch.</desc>
    <g id="Pages" stroke="none" stroke-width="1" fill="none" fill-rule="evenodd">
        <g id="Catalog" transform="translate(-540.000000, -488.000000)" fill="#4D4D4D">
            <g id="templates" transform="translate(540.000000, 488.000000)">
                <g id="browser">
                    <g id="Shape">
                        <path d="M356,0 L4,0 C1.8,0 0,1.8 0,4 L0,40 L360,40 L360,4 C360,1.8 358.2,0 356,0 Z M22.9909999,27 C20.4901408,27 18.1792517,25.6658076 16.9288221,23.5 C15.6783925,21.3341925 15.6783925,18.6658075 16.9288221,16.5 C18.1792517,14.3341924 20.4901408,13 22.9909999,13 C26.8569932,13.0000001 29.9909999,16.1340068 29.9909999,20 C29.9909999,23.8659932 26.8569932,26.9999999 22.9909999,27 L22.9909999,27 Z M46.0019999,27 C43.5011408,27 41.1902517,25.6658076 39.9398221,23.5 C38.6893925,21.3341925 38.6893925,18.6658075 39.9398221,16.5 C41.1902517,14.3341924 43.5011408,13 46.0019999,13 C49.8679932,13.0000001 53.0019999,16.1340068 53.0019999,20 C53.0019999,23.8659932 49.8679932,26.9999999 46.0019999,27 L46.0019999,27 Z M69.0129999,27 C66.5121408,27 64.2012517,25.6658076 62.9508221,23.5 C61.7003925,21.3341925 61.7003925,18.6658075 62.9508221,16.5 C64.2012517,14.3341924 66.5121408,13 69.0129999,13 C72.8789932,13.0000001 76.0129999,16.1340068 76.0129999,20 C76.0129999,23.8659932 72.8789932,26.9999999 69.0129999,27 L69.0129999,27 Z" fill-rule="nonzero"></path>
                    </g>
                </g>
            </g>
        </g>
    </g>
</svg>